<svg width="17" height="12" viewBox="0 0 17 12" fill="none" xmlns="http://www.w3.org/2000/svg">
<path d="M14.4939 0H2.07055C1.52159 0.000531772 0.995276 0.198247 0.607099 0.549762C0.218923 0.901278 0.000587233 1.37788 0 1.875V9.91072C0.000587233 10.4078 0.218923 10.8844 0.607099 11.236C0.995276 11.5875 1.52159 11.7852 2.07055 11.7857H14.4939C15.0428 11.7852 15.5691 11.5875 15.9573 11.236C16.3455 10.8844 16.5638 10.4078 16.5644 9.91072V1.875C16.5638 1.37788 16.3455 0.901278 15.9573 0.549762C15.5691 0.198247 15.0428 0.000531772 14.4939 0ZM13.9696 3.10145L8.64529 6.85145C8.54147 6.92454 8.41371 6.96422 8.28221 6.96422C8.1507 6.96422 8.02295 6.92454 7.91912 6.85145L2.59485 3.10145C2.53229 3.05867 2.47975 3.00506 2.44027 2.94374C2.40079 2.88241 2.37517 2.81459 2.36488 2.74422C2.3546 2.67385 2.35987 2.60232 2.38037 2.53381C2.40088 2.4653 2.43621 2.40116 2.48433 2.34512C2.53245 2.28908 2.59238 2.24226 2.66065 2.20737C2.72892 2.17249 2.80417 2.15024 2.88202 2.14192C2.95987 2.1336 3.03876 2.13938 3.11413 2.15891C3.18949 2.17844 3.25982 2.21134 3.32102 2.25569L8.28221 5.74989L13.2434 2.25569C13.3675 2.17086 13.5234 2.13365 13.6775 2.15211C13.8316 2.17058 13.9715 2.24324 14.0669 2.35437C14.1624 2.46551 14.2056 2.60619 14.1874 2.74599C14.1692 2.8858 14.0909 3.01349 13.9696 3.10145Z" fill="#F5F5F5"/>
</svg>
