<svg width="18" height="15" viewBox="0 0 18 15" fill="none" xmlns="http://www.w3.org/2000/svg">
<path d="M13.7728 14.9999C13.0509 14.9999 12.0369 14.7635 10.5184 13.9954C8.67191 13.0579 7.24368 12.1924 5.40717 10.534C3.63648 8.93183 2.77481 7.89454 1.56884 5.90768C0.206432 3.66435 0.438677 2.48845 0.698288 1.98587C1.00746 1.3852 1.46381 1.02593 2.05367 0.66934C2.3887 0.4706 2.74325 0.300235 3.11282 0.160406C3.14981 0.146008 3.1842 0.13228 3.21489 0.119892C3.39795 0.0452256 3.67532 -0.0676106 4.02664 0.0529266C4.26111 0.132615 4.47042 0.295675 4.79808 0.588647C5.47004 1.18865 6.38829 2.52494 6.72705 3.1812C6.95448 3.62351 7.105 3.91547 7.10537 4.24293C7.10537 4.62631 6.89235 4.92196 6.63385 5.24105C6.58541 5.30098 6.53733 5.35824 6.49073 5.41382C6.2093 5.74864 6.14754 5.84541 6.18822 6.01818C6.27069 6.36539 6.8857 7.399 7.89641 8.31207C8.90712 9.22514 10.0158 9.74679 10.4008 9.82113C10.5998 9.85963 10.7089 9.80137 11.0905 9.53753C11.1453 9.49969 11.2015 9.46052 11.2603 9.42134C11.6545 9.15583 11.9659 8.96799 12.3793 8.96799H12.3815C12.7414 8.96799 13.0494 9.10929 13.5598 9.34232C14.2255 9.64635 15.7458 10.467 16.4126 11.0761C16.7369 11.372 16.9177 11.5609 17.0061 11.7728C17.1392 12.0919 17.0139 12.342 16.9321 12.5094C16.9185 12.5372 16.9033 12.5677 16.8874 12.6015C16.7317 12.9355 16.5425 13.2558 16.3219 13.5584C15.9288 14.0908 15.5305 14.503 14.8656 14.7832C14.5242 14.9295 14.1505 15.0035 13.7728 14.9999Z" fill="#F5F5F5" fill-opacity="0.83"/>
</svg>
