<svg width="66" height="62" viewBox="0 0 66 62" fill="none" xmlns="http://www.w3.org/2000/svg">
<path d="M0 29.8C0 20.6689 0 16.1033 1.46287 12.4917C3.4951 7.47436 7.47436 3.4951 12.4917 1.46287C16.1033 0 20.6689 0 29.8 0H36.2C45.3311 0 49.8967 0 53.5083 1.46287C58.5256 3.4951 62.5049 7.47436 64.5371 12.4917C66 16.1033 66 20.6689 66 29.8V32.2C66 41.3311 66 45.8967 64.5371 49.5083C62.5049 54.5256 58.5256 58.5049 53.5083 60.5371C49.8967 62 45.3311 62 36.2 62H29.8C20.6689 62 16.1033 62 12.4917 60.5371C7.47436 58.5049 3.4951 54.5256 1.46287 49.5083C0 45.8967 0 41.3311 0 32.2V29.8Z" fill="#1CBABD"/>
<path d="M27.3125 21.1875C27.3125 19.5465 27.9644 17.9727 29.1248 16.8123C30.2852 15.6519 31.859 15 33.5 15C35.141 15 36.7148 15.6519 37.8752 16.8123C39.0356 17.9727 39.6875 19.5465 39.6875 21.1875V31.5C39.6875 33.141 39.0356 34.7148 37.8752 35.8752C36.7148 37.0356 35.141 37.6875 33.5 37.6875C31.859 37.6875 30.2852 37.0356 29.1248 35.8752C27.9644 34.7148 27.3125 33.141 27.3125 31.5V21.1875Z" fill="white"/>
<path d="M24.2188 28.4062C24.4923 28.4062 24.7546 28.5149 24.948 28.7083C25.1414 28.9017 25.25 29.164 25.25 29.4375V31.5C25.25 33.688 26.1192 35.7865 27.6664 37.3336C29.2135 38.8808 31.312 39.75 33.5 39.75C35.688 39.75 37.7865 38.8808 39.3336 37.3336C40.8808 35.7865 41.75 33.688 41.75 31.5V29.4375C41.75 29.164 41.8586 28.9017 42.052 28.7083C42.2454 28.5149 42.5077 28.4062 42.7812 28.4062C43.0548 28.4062 43.3171 28.5149 43.5105 28.7083C43.7039 28.9017 43.8125 29.164 43.8125 29.4375V31.5C43.8125 34.0565 42.863 36.5219 41.148 38.4179C39.433 40.3139 37.075 41.5053 34.5312 41.7609V45.9375H40.7188C40.9923 45.9375 41.2546 46.0461 41.448 46.2395C41.6414 46.4329 41.75 46.6952 41.75 46.9688C41.75 47.2423 41.6414 47.5046 41.448 47.698C41.2546 47.8914 40.9923 48 40.7188 48H26.2812C26.0077 48 25.7454 47.8914 25.552 47.698C25.3586 47.5046 25.25 47.2423 25.25 46.9688C25.25 46.6952 25.3586 46.4329 25.552 46.2395C25.7454 46.0461 26.0077 45.9375 26.2812 45.9375H32.4688V41.7609C29.925 41.5053 27.567 40.3139 25.852 38.4179C24.137 36.5219 23.1875 34.0565 23.1875 31.5V29.4375C23.1875 29.164 23.2961 28.9017 23.4895 28.7083C23.6829 28.5149 23.9452 28.4062 24.2188 28.4062Z" fill="white"/>
</svg>
