<svg width="3" height="3" viewBox="0 0 3 3" fill="none" xmlns="http://www.w3.org/2000/svg">
<path d="M1.83325 2.16687C1.63547 2.16687 1.44213 2.10822 1.27768 1.99834C1.11323 1.88846 0.98506 1.73228 0.909373 1.54955C0.833685 1.36683 0.813882 1.16576 0.852467 0.97178C0.891052 0.777799 0.986293 0.599616 1.12615 0.459764C1.266 0.319911 1.44418 0.224671 1.63816 0.186085C1.83214 0.1475 2.03321 0.167303 2.21594 0.242991C2.39866 0.318679 2.55484 0.446851 2.66472 0.6113C2.7746 0.77575 2.83325 0.969089 2.83325 1.16687C2.83353 1.29827 2.80786 1.42843 2.75771 1.54989C2.70755 1.67134 2.6339 1.78169 2.54099 1.87461C2.44807 1.96752 2.33772 2.04117 2.21627 2.09133C2.09482 2.14148 1.96465 2.16715 1.83325 2.16687Z" fill="#F5F5F5"/>
</svg>
