<svg width="17" height="15" viewBox="0 0 17 15" fill="none" xmlns="http://www.w3.org/2000/svg">
<path d="M16.4999 2.31147C15.8998 2.58855 15.2647 2.7711 14.615 2.85334C15.2978 2.42848 15.8114 1.75351 16.0593 0.955017C15.4137 1.35614 14.7085 1.63759 13.974 1.78731C13.6647 1.44289 13.2927 1.1689 12.8806 0.981985C12.4685 0.795071 12.025 0.699138 11.577 0.700018C9.76297 0.700018 8.29498 2.2371 8.29498 4.13188C8.29369 4.39544 8.32211 4.65821 8.37964 4.91459C7.07888 4.8498 5.80516 4.49723 4.63998 3.87945C3.4748 3.26167 2.44382 2.39228 1.613 1.32689C1.32152 1.84897 1.16738 2.44465 1.16666 3.05168C1.16666 4.24167 1.751 5.29355 2.63333 5.90979C2.11057 5.89661 1.59853 5.74961 1.14066 5.48125V5.52375C1.14066 7.18833 2.27399 8.57312 3.77399 8.88833C3.49192 8.96822 3.20125 9.0087 2.90933 9.00874C2.70219 9.00913 2.49552 8.98777 2.29233 8.94499C2.70933 10.3085 3.92299 11.3002 5.36065 11.3285C4.19245 12.2851 2.7582 12.8021 1.28333 12.7983C1.02154 12.7979 0.759988 12.7813 0.5 12.7487C2.00039 13.7667 3.74447 14.3051 5.52465 14.3C11.57 14.3 14.8726 9.06895 14.8726 4.53209C14.8726 4.38334 14.869 4.23459 14.8623 4.08938C15.5033 3.60491 16.0579 3.00284 16.4999 2.31147Z" fill="#F5F5F5"/>
</svg>
