<svg width="17" height="15" viewBox="0 0 17 15" fill="none" xmlns="http://www.w3.org/2000/svg">
<path d="M13.2728 14.9999C12.5509 14.9999 11.5369 14.7635 10.0184 13.9954C8.17191 13.0579 6.74368 12.1924 4.90717 10.534C3.13648 8.93183 2.27481 7.89454 1.06884 5.90768C-0.293568 3.66435 -0.0613231 2.48845 0.198288 1.98587C0.507456 1.3852 0.96381 1.02593 1.55367 0.66934C1.8887 0.4706 2.24325 0.300235 2.61282 0.160406C2.64981 0.146008 2.6842 0.13228 2.71489 0.119892C2.89795 0.0452256 3.17532 -0.0676106 3.52664 0.0529266C3.76111 0.132615 3.97042 0.295675 4.29808 0.588647C4.97004 1.18865 5.88829 2.52494 6.22705 3.1812C6.45448 3.62351 6.605 3.91547 6.60537 4.24293C6.60537 4.62631 6.39235 4.92196 6.13385 5.24105C6.08541 5.30098 6.03733 5.35824 5.99073 5.41382C5.7093 5.74864 5.64754 5.84541 5.68822 6.01818C5.77069 6.36539 6.3857 7.399 7.39641 8.31207C8.40712 9.22514 9.51583 9.74679 9.90081 9.82113C10.0998 9.85963 10.2089 9.80137 10.5905 9.53753C10.6453 9.49969 10.7015 9.46052 10.7603 9.42134C11.1545 9.15583 11.4659 8.96799 11.8793 8.96799H11.8815C12.2414 8.96799 12.5494 9.10929 13.0598 9.34232C13.7255 9.64635 15.2458 10.467 15.9126 11.0761C16.2369 11.372 16.4177 11.5609 16.5061 11.7728C16.6392 12.0919 16.5139 12.342 16.4321 12.5094C16.4185 12.5372 16.4033 12.5677 16.3874 12.6015C16.2317 12.9355 16.0425 13.2558 15.8219 13.5584C15.4288 14.0908 15.0305 14.503 14.3656 14.7832C14.0242 14.9295 13.6505 15.0035 13.2728 14.9999Z" fill="#F5F5F5"/>
</svg>
