<svg width="37" height="36" viewBox="0 0 37 36" fill="none" xmlns="http://www.w3.org/2000/svg">
<path d="M28.1583 6.91177C24.7546 3.60005 19.2119 3.60005 15.8118 6.91177L6.38109 16.0805C6.31966 16.1403 6.28714 16.2211 6.28714 16.3055C6.28714 16.3899 6.31966 16.4708 6.38109 16.5305L7.71439 17.8278C7.77533 17.8868 7.85783 17.92 7.94383 17.92C8.02983 17.92 8.11233 17.8868 8.17328 17.8278L17.6039 8.65903C18.7746 7.51997 20.332 6.89419 21.9869 6.89419C23.6417 6.89419 25.1991 7.51997 26.3661 8.65903C27.5369 9.7981 28.18 11.3133 28.18 12.92C28.18 14.5301 27.5369 16.0418 26.3661 17.1809L16.7548 26.529L15.1975 28.0442C13.7413 29.461 11.3746 29.461 9.91849 28.0442C9.2139 27.3586 8.82728 26.4481 8.82728 25.4778C8.82728 24.5075 9.2139 23.5969 9.91849 22.9114L19.4539 13.6372C19.696 13.4051 20.014 13.275 20.3536 13.275H20.3573C20.6969 13.275 21.0113 13.4051 21.2497 13.6372C21.4918 13.8727 21.6219 14.1821 21.6219 14.5125C21.6219 14.8395 21.4882 15.1489 21.2497 15.3809L13.4559 22.9571C13.3945 23.0168 13.3619 23.0977 13.3619 23.1821C13.3619 23.2665 13.3945 23.3473 13.4559 23.4071L14.7892 24.7043C14.8501 24.7634 14.9326 24.7965 15.0186 24.7965C15.1046 24.7965 15.1871 24.7634 15.2481 24.7043L23.0383 17.1247C23.7574 16.425 24.1512 15.4969 24.1512 14.509C24.1512 13.5211 23.7537 12.5895 23.0383 11.8934C21.5533 10.4485 19.1396 10.452 17.6545 11.8934L16.7295 12.7969L8.12269 21.1676C7.53853 21.7327 7.07548 22.4049 6.76039 23.1454C6.4453 23.8859 6.28444 24.6799 6.28714 25.4813C6.28714 27.109 6.94115 28.6383 8.12269 29.7879C9.34759 30.9762 10.9519 31.5704 12.5562 31.5704C14.1605 31.5704 15.7648 30.9762 16.9861 29.7879L28.1583 18.9247C29.8024 17.3215 30.7129 15.1875 30.7129 12.92C30.7165 10.6489 29.806 8.51489 28.1583 6.91177Z" fill="#333333"/>
</svg>
