<svg width="34" height="31" viewBox="0 0 34 31" fill="none" xmlns="http://www.w3.org/2000/svg">
<path d="M19.7272 3.23432C20.2826 3.23428 20.8284 3.36656 21.3105 3.61804C21.7925 3.86953 22.1942 4.23149 22.4756 4.66807L23.6287 6.45962H26.5627C27.7835 6.45962 28.9544 6.90172 29.8178 7.6887C30.6812 8.47568 31.1665 9.54311 31.1668 10.6562V22.9271C31.1668 23.4784 31.0477 24.0242 30.8164 24.5335C30.585 25.0429 30.2458 25.5056 29.8183 25.8954C29.3908 26.2853 28.8832 26.5945 28.3246 26.8054C27.766 27.0164 27.1673 27.125 26.5627 27.125H7.43766C6.21656 27.125 5.04547 26.6827 4.18203 25.8954C3.31858 25.1082 2.8335 24.0404 2.8335 22.9271V10.6562C2.8335 9.54288 3.31858 8.47513 4.18203 7.68786C5.04547 6.9006 6.21656 6.45832 7.43766 6.45832H10.3843L11.6239 4.61899C11.9089 4.19561 12.3082 3.8459 12.7837 3.60327C13.2591 3.36063 13.7948 3.23316 14.3397 3.23303H19.7272V3.23432ZM19.7272 5.17182H14.3397C14.1846 5.17194 14.0315 5.20299 13.891 5.26279C13.7506 5.32259 13.6261 5.40969 13.5265 5.51799L13.4344 5.63424L11.886 7.93341C11.791 8.07462 11.658 8.19127 11.4995 8.27222C11.341 8.35318 11.1624 8.39573 10.9807 8.39582H7.43908C7.11339 8.39565 6.79086 8.454 6.48991 8.56752C6.18896 8.68104 5.91549 8.84751 5.68513 9.05743C5.45477 9.26734 5.27203 9.51659 5.14735 9.79092C5.02267 10.0652 4.9585 10.3593 4.9585 10.6562V22.9271C4.9585 24.1748 6.06916 25.1875 7.43766 25.1875H26.5627C27.2202 25.1875 27.8508 24.9493 28.3157 24.5254C28.7806 24.1015 29.0418 23.5266 29.0418 22.9271V10.6562C29.0418 10.0567 28.7806 9.4818 28.3157 9.05788C27.8508 8.63397 27.2202 8.39582 26.5627 8.39582H23.021C22.8358 8.39591 22.6538 8.35186 22.493 8.26802C22.3322 8.18419 22.1983 8.0635 22.1044 7.91791L20.6424 5.64845C20.5487 5.50305 20.415 5.38247 20.2545 5.29865C20.094 5.21483 19.9122 5.17067 19.7272 5.17053V5.17182ZM17.0002 10.3333C18.6909 10.3333 20.3124 10.9457 21.508 12.0358C22.7035 13.1258 23.3752 14.6043 23.3752 16.1458C23.3752 17.6874 22.7035 19.1658 21.508 20.2559C20.3124 21.3459 18.6909 21.9583 17.0002 21.9583C15.3094 21.9583 13.6879 21.3459 12.4924 20.2559C11.2968 19.1658 10.6252 17.6874 10.6252 16.1458C10.6252 14.6043 11.2968 13.1258 12.4924 12.0358C13.6879 10.9457 15.3094 10.3333 17.0002 10.3333ZM17.0002 12.2708C16.442 12.2708 15.8894 12.3711 15.3738 12.5658C14.8581 12.7605 14.3896 13.046 13.995 13.4058C13.6003 13.7656 13.2873 14.1928 13.0737 14.6629C12.8601 15.1331 12.7502 15.637 12.7502 16.1458C12.7502 16.6547 12.8601 17.1586 13.0737 17.6287C13.2873 18.0989 13.6003 18.526 13.995 18.8859C14.3896 19.2457 14.8581 19.5311 15.3738 19.7259C15.8894 19.9206 16.442 20.0208 17.0002 20.0208C18.1273 20.0208 19.2083 19.6126 20.0054 18.8859C20.8024 18.1592 21.2502 17.1735 21.2502 16.1458C21.2502 15.1181 20.8024 14.1325 20.0054 13.4058C19.2083 12.6791 18.1273 12.2708 17.0002 12.2708Z" fill="#333333"/>
</svg>
