<svg width="36" height="37" viewBox="0 0 36 37" fill="none" xmlns="http://www.w3.org/2000/svg">
<path d="M13.5 13.875C13.2016 13.875 12.9155 13.9968 12.7045 14.2137C12.4935 14.4305 12.375 14.7246 12.375 15.0312C12.375 15.3379 12.2565 15.632 12.0455 15.8488C11.8345 16.0657 11.5484 16.1875 11.25 16.1875C10.9516 16.1875 10.6655 16.0657 10.4545 15.8488C10.2435 15.632 10.125 15.3379 10.125 15.0312C10.125 14.1113 10.4806 13.229 11.1135 12.5785C11.7464 11.928 12.6049 11.5625 13.5 11.5625C14.3951 11.5625 15.2536 11.928 15.8865 12.5785C16.5194 13.229 16.875 14.1113 16.875 15.0312C16.875 15.3379 16.7565 15.632 16.5455 15.8488C16.3345 16.0657 16.0484 16.1875 15.75 16.1875C15.4516 16.1875 15.1655 16.0657 14.9545 15.8488C14.7435 15.632 14.625 15.3379 14.625 15.0312C14.625 14.7246 14.5065 14.4305 14.2955 14.2137C14.0845 13.9968 13.7984 13.875 13.5 13.875ZM22.5 13.875C22.2016 13.875 21.9155 13.9968 21.7045 14.2137C21.4935 14.4305 21.375 14.7246 21.375 15.0312C21.375 15.3379 21.2565 15.632 21.0455 15.8488C20.8345 16.0657 20.5484 16.1875 20.25 16.1875C19.9516 16.1875 19.6655 16.0657 19.4545 15.8488C19.2435 15.632 19.125 15.3379 19.125 15.0312C19.125 14.1113 19.4806 13.229 20.1135 12.5785C20.7464 11.928 21.6049 11.5625 22.5 11.5625C23.3951 11.5625 24.2536 11.928 24.8865 12.5785C25.5194 13.229 25.875 14.1113 25.875 15.0312C25.875 15.3379 25.7565 15.632 25.5455 15.8488C25.3345 16.0657 25.0484 16.1875 24.75 16.1875C24.4516 16.1875 24.1655 16.0657 23.9545 15.8488C23.7435 15.632 23.625 15.3379 23.625 15.0312C23.625 14.7246 23.5065 14.4305 23.2955 14.2137C23.0845 13.9968 22.7984 13.875 22.5 13.875ZM10.2037 18.5C10.0427 18.5 9.88357 18.5356 9.73706 18.6043C9.59055 18.6729 9.46009 18.7732 9.35451 18.8981C9.24892 19.0231 9.17067 19.1699 9.12504 19.3286C9.0794 19.4873 9.06746 19.6543 9.09 19.8181C9.39569 22.023 10.4652 24.0406 12.102 25.5001C13.7388 26.9597 15.833 27.7633 18 27.7633C20.167 27.7633 22.2612 26.9597 23.898 25.5001C25.5348 24.0406 26.6043 22.023 26.91 19.8181C26.9326 19.6541 26.9206 19.4869 26.8748 19.328C26.829 19.1692 26.7506 19.0222 26.6448 18.8972C26.5389 18.7722 26.4082 18.6721 26.2614 18.6035C26.1146 18.535 25.9552 18.4997 25.794 18.5H10.2037ZM18 25.4375C16.6037 25.4376 15.2417 24.9929 14.1014 24.1646C12.9611 23.3364 12.0986 22.1653 11.6325 20.8125H24.3675C23.9014 22.1653 23.0389 23.3364 21.8986 24.1646C20.7583 24.9929 19.3963 25.4376 18 25.4375ZM31.5 18.5C31.5 16.6779 31.1508 14.8737 30.4724 13.1903C29.7939 11.5069 28.7995 9.97731 27.5459 8.68889C26.2924 7.40048 24.8041 6.37846 23.1662 5.68117C21.5283 4.98389 19.7728 4.625 18 4.625C16.2272 4.625 14.4717 4.98389 12.8338 5.68117C11.1959 6.37846 9.70765 7.40048 8.45406 8.68889C7.20047 9.97731 6.20606 11.5069 5.52763 13.1903C4.84919 14.8737 4.5 16.6779 4.5 18.5C4.5 22.1799 5.92232 25.709 8.45406 28.3111C10.9858 30.9132 14.4196 32.375 18 32.375C21.5804 32.375 25.0142 30.9132 27.5459 28.3111C30.0777 25.709 31.5 22.1799 31.5 18.5ZM6.75 18.5C6.75 15.4334 7.93526 12.4925 10.045 10.3241C12.1548 8.15569 15.0163 6.9375 18 6.9375C20.9837 6.9375 23.8452 8.15569 25.955 10.3241C28.0647 12.4925 29.25 15.4334 29.25 18.5C29.25 21.5666 28.0647 24.5075 25.955 26.6759C23.8452 28.8443 20.9837 30.0625 18 30.0625C15.0163 30.0625 12.1548 28.8443 10.045 26.6759C7.93526 24.5075 6.75 21.5666 6.75 18.5Z" fill="#333333"/>
</svg>
