<svg width="19" height="19" viewBox="0 0 19 19" fill="none" xmlns="http://www.w3.org/2000/svg">
<path d="M2.28571 3.97644C1.94472 3.97644 1.6177 4.10892 1.37658 4.34474C1.13546 4.58056 1 4.9004 1 5.2339V16.551C1 16.8845 1.13546 17.2043 1.37658 17.4402C1.6177 17.676 1.94472 17.8085 2.28571 17.8085H16.4286C16.7696 17.8085 17.0966 17.676 17.3377 17.4402C17.5788 17.2043 17.7143 16.8845 17.7143 16.551V5.2339C17.7143 4.9004 17.5788 4.58056 17.3377 4.34474C17.0966 4.10892 16.7696 3.97644 16.4286 3.97644H13.8571" stroke="white" stroke-linecap="round" stroke-linejoin="round"/>
<path d="M4.85718 1.46155V6.49137" stroke="white" stroke-linecap="round" stroke-linejoin="round"/>
<path d="M13.8572 1.46155V6.49137" stroke="white" stroke-linecap="round" stroke-linejoin="round"/>
<path d="M4.85718 3.97644H11.2857" stroke="white" stroke-linecap="round" stroke-linejoin="round"/>
<path d="M12.5714 13.4073H6.14282" stroke="white" stroke-linecap="round" stroke-linejoin="round"/>
<path d="M1 9.00635H17.7143" stroke="white" stroke-linecap="round" stroke-linejoin="round"/>
</svg>
