<svg width="17" height="17" viewBox="0 0 17 17" fill="none" xmlns="http://www.w3.org/2000/svg">
<path d="M11.8332 1.83321C12.7165 1.83585 13.5629 2.18791 14.1875 2.81251C14.8121 3.4371 15.1641 4.28348 15.1668 5.16679V11.8332C15.1641 12.7165 14.8121 13.5629 14.1875 14.1875C13.5629 14.8121 12.7165 15.1641 11.8332 15.1668H5.16679C4.28348 15.1641 3.4371 14.8121 2.81251 14.1875C2.18791 13.5629 1.83585 12.7165 1.83321 11.8332V5.16679C1.83585 4.28348 2.18791 3.4371 2.81251 2.81251C3.4371 2.18791 4.28348 1.83585 5.16679 1.83321H11.8332ZM11.8332 0.5H5.16679C2.6 0.5 0.5 2.6 0.5 5.16679V11.8332C0.5 14.4 2.6 16.5 5.16679 16.5H11.8332C14.4 16.5 16.5 14.4 16.5 11.8332V5.16679C16.5 2.6 14.4 0.5 11.8332 0.5Z" fill="#F5F5F5"/>
</svg>
