<svg width="9" height="9" viewBox="0 0 9 9" fill="none" xmlns="http://www.w3.org/2000/svg">
<path d="M4.5 1.83321C5.02744 1.83321 5.54304 1.98962 5.98159 2.28265C6.42014 2.57568 6.76195 2.99217 6.96379 3.47947C7.16563 3.96676 7.21844 4.50296 7.11555 5.02026C7.01265 5.53757 6.75866 6.01275 6.3857 6.3857C6.01275 6.75866 5.53757 7.01265 5.02027 7.11554C4.50296 7.21844 3.96676 7.16563 3.47947 6.96379C2.99218 6.76195 2.57568 6.42014 2.28265 5.98159C1.98962 5.54304 1.83322 5.02744 1.83322 4.5C1.83397 3.79296 2.11518 3.11509 2.61513 2.61513C3.11509 2.11518 3.79296 1.83397 4.5 1.83321ZM4.5 0.5C3.70888 0.5 2.93552 0.734596 2.27772 1.17412C1.61992 1.61365 1.10723 2.23836 0.804484 2.96927C0.501733 3.70017 0.42252 4.50444 0.576861 5.28036C0.731202 6.05629 1.11216 6.76902 1.67157 7.32843C2.23098 7.88784 2.94372 8.2688 3.71964 8.42314C4.49556 8.57748 5.29983 8.49827 6.03074 8.19552C6.76164 7.89277 7.38635 7.38008 7.82588 6.72228C8.26541 6.06449 8.5 5.29113 8.5 4.5C8.5 3.43913 8.07857 2.42172 7.32843 1.67157C6.57828 0.921428 5.56087 0.5 4.5 0.5Z" fill="#F5F5F5"/>
</svg>
