<svg width="17" height="14" viewBox="0 0 17 14" fill="none" xmlns="http://www.w3.org/2000/svg">
<path d="M16.8037 1.81141C16.2035 2.08849 15.5685 2.27104 14.9187 2.35328C15.6016 1.92842 16.1151 1.25345 16.363 0.454956C15.7174 0.856081 15.0122 1.13753 14.2777 1.28725C13.9684 0.94283 13.5964 0.668838 13.1843 0.481924C12.7723 0.29501 12.3287 0.199077 11.8807 0.199957C10.0667 0.199957 8.59869 1.73704 8.59869 3.63182C8.5974 3.89538 8.62582 4.15815 8.68335 4.41453C7.38259 4.34974 6.10887 3.99717 4.94369 3.37939C3.77851 2.76161 2.74753 1.89222 1.91671 0.82683C1.62523 1.34891 1.47109 1.94459 1.47038 2.55162C1.47038 3.74161 2.05471 4.79349 2.93704 5.40973C2.41428 5.39655 1.90224 5.24954 1.44438 4.98119V5.02369C1.44438 6.68827 2.57771 8.07306 4.0777 8.38827C3.79563 8.46816 3.50496 8.50864 3.21304 8.50868C3.0059 8.50907 2.79923 8.48771 2.59604 8.44493C3.01304 9.80847 4.2267 10.8001 5.66436 10.8285C4.49616 11.785 3.06191 12.3021 1.58704 12.2983C1.32525 12.2978 1.0637 12.2813 0.803711 12.2487C2.3041 13.2666 4.04818 13.8051 5.82836 13.7999C11.8737 13.7999 15.1763 8.56889 15.1763 4.03203C15.1763 3.88328 15.1727 3.73453 15.166 3.58932C15.807 3.10484 16.3616 2.50278 16.8037 1.81141Z" fill="#F5F5F5"/>
</svg>
