<svg width="15" height="18" viewBox="0 0 15 18" fill="none" xmlns="http://www.w3.org/2000/svg">
<path d="M7.09904 0C3.17992 0 0 2.59192 0 5.78571C0 10.9286 7.09904 18 7.09904 18C7.09904 18 14.1981 10.9286 14.1981 5.78571C14.1981 2.59192 11.0181 0 7.09904 0ZM7.09904 9C6.53741 9 5.9884 8.84919 5.52143 8.56664C5.05446 8.28408 4.6905 7.88248 4.47557 7.41261C4.26065 6.94275 4.20442 6.42572 4.31398 5.92691C4.42355 5.4281 4.694 4.96992 5.09113 4.6103C5.48825 4.25068 5.99422 4.00577 6.54505 3.90655C7.09589 3.80733 7.66684 3.85826 8.18571 4.05288C8.70458 4.24751 9.14807 4.57709 9.46009 4.99996C9.77211 5.42283 9.93865 5.91999 9.93865 6.42857C9.93783 7.11033 9.63839 7.76395 9.10604 8.24602C8.57369 8.7281 7.8519 8.99926 7.09904 9Z" fill="#F5F5F5" fill-opacity="0.83"/>
</svg>
