<svg width="17" height="16" viewBox="0 0 17 16" fill="none" xmlns="http://www.w3.org/2000/svg">
<path d="M12.1369 1.33321C13.0202 1.33585 13.8666 1.68791 14.4912 2.31251C15.1158 2.9371 15.4679 3.78348 15.4705 4.66679V11.3332C15.4679 12.2165 15.1158 13.0629 14.4912 13.6875C13.8666 14.3121 13.0202 14.6641 12.1369 14.6668H5.4705C4.58719 14.6641 3.74081 14.3121 3.11622 13.6875C2.49162 13.0629 2.13956 12.2165 2.13693 11.3332V4.66679C2.13956 3.78348 2.49162 2.9371 3.11622 2.31251C3.74081 1.68791 4.58719 1.33585 5.4705 1.33321H12.1369ZM12.1369 0H5.4705C2.90371 0 0.803711 2.1 0.803711 4.66679V11.3332C0.803711 13.9 2.90371 16 5.4705 16H12.1369C14.7037 16 16.8037 13.9 16.8037 11.3332V4.66679C16.8037 2.1 14.7037 0 12.1369 0Z" fill="#F5F5F5"/>
<path d="M13.137 4.66699C12.9392 4.66699 12.7458 4.60834 12.5814 4.49846C12.4169 4.38858 12.2888 4.2324 12.2131 4.04968C12.1374 3.86695 12.1176 3.66588 12.1562 3.4719C12.1948 3.27792 12.29 3.09974 12.4299 2.95989C12.5697 2.82003 12.7479 2.72479 12.9419 2.68621C13.1359 2.64762 13.3369 2.66743 13.5196 2.74311C13.7024 2.8188 13.8586 2.94697 13.9684 3.11142C14.0783 3.27587 14.137 3.46921 14.137 3.66699C14.1372 3.79839 14.1116 3.92856 14.0614 4.05001C14.0113 4.17146 13.9376 4.28181 13.8447 4.37473C13.7518 4.46764 13.6414 4.54129 13.52 4.59145C13.3985 4.6416 13.2684 4.66727 13.137 4.66699Z" fill="#F5F5F5"/>
<path d="M8.80371 5.33321C9.33115 5.33321 9.84675 5.48962 10.2853 5.78265C10.7239 6.07568 11.0657 6.49217 11.2675 6.97947C11.4693 7.46676 11.5222 8.00296 11.4193 8.52026C11.3164 9.03757 11.0624 9.51275 10.6894 9.8857C10.3165 10.2587 9.84128 10.5126 9.32398 10.6155C8.80667 10.7184 8.27047 10.6656 7.78318 10.4638C7.29589 10.2619 6.87939 9.92014 6.58636 9.48159C6.29333 9.04304 6.13693 8.52744 6.13693 8C6.13768 7.29296 6.41889 6.61509 6.91885 6.11513C7.4188 5.61518 8.09667 5.33397 8.80371 5.33321ZM8.80371 4C8.01259 4 7.23923 4.2346 6.58143 4.67412C5.92364 5.11365 5.41095 5.73836 5.10819 6.46927C4.80544 7.20017 4.72623 8.00444 4.88057 8.78036C5.03491 9.55629 5.41588 10.269 5.97529 10.8284C6.5347 11.3878 7.24743 11.7688 8.02335 11.9231C8.79928 12.0775 9.60354 11.9983 10.3344 11.6955C11.0654 11.3928 11.6901 10.8801 12.1296 10.2223C12.5691 9.56449 12.8037 8.79113 12.8037 8C12.8037 6.93913 12.3823 5.92172 11.6321 5.17157C10.882 4.42143 9.86458 4 8.80371 4Z" fill="#F5F5F5"/>
</svg>
