<svg width="33" height="33" viewBox="0 0 33 33" fill="none" xmlns="http://www.w3.org/2000/svg">
<path d="M10.3125 6.1875C10.3125 4.54647 10.9644 2.97266 12.1248 1.81228C13.2852 0.651895 14.859 0 16.5 0C18.141 0 19.7148 0.651895 20.8752 1.81228C22.0356 2.97266 22.6875 4.54647 22.6875 6.1875V16.5C22.6875 18.141 22.0356 19.7148 20.8752 20.8752C19.7148 22.0356 18.141 22.6875 16.5 22.6875C14.859 22.6875 13.2852 22.0356 12.1248 20.8752C10.9644 19.7148 10.3125 18.141 10.3125 16.5V6.1875Z" fill="white"/>
<path d="M7.21875 13.4062C7.49225 13.4062 7.75456 13.5149 7.94795 13.7083C8.14135 13.9017 8.25 14.164 8.25 14.4375V16.5C8.25 18.688 9.11919 20.7865 10.6664 22.3336C12.2135 23.8808 14.312 24.75 16.5 24.75C18.688 24.75 20.7865 23.8808 22.3336 22.3336C23.8808 20.7865 24.75 18.688 24.75 16.5V14.4375C24.75 14.164 24.8586 13.9017 25.052 13.7083C25.2454 13.5149 25.5077 13.4062 25.7812 13.4062C26.0548 13.4062 26.3171 13.5149 26.5105 13.7083C26.7039 13.9017 26.8125 14.164 26.8125 14.4375V16.5C26.8125 19.0565 25.863 21.5219 24.148 23.4179C22.433 25.3139 20.075 26.5053 17.5312 26.7609V30.9375H23.7188C23.9923 30.9375 24.2546 31.0461 24.448 31.2395C24.6414 31.4329 24.75 31.6952 24.75 31.9688C24.75 32.2423 24.6414 32.5046 24.448 32.698C24.2546 32.8914 23.9923 33 23.7188 33H9.28125C9.00775 33 8.74544 32.8914 8.55205 32.698C8.35865 32.5046 8.25 32.2423 8.25 31.9688C8.25 31.6952 8.35865 31.4329 8.55205 31.2395C8.74544 31.0461 9.00775 30.9375 9.28125 30.9375H15.4688V26.7609C12.925 26.5053 10.567 25.3139 8.852 23.4179C7.13704 21.5219 6.18747 19.0565 6.1875 16.5V14.4375C6.1875 14.164 6.29615 13.9017 6.48955 13.7083C6.68294 13.5149 6.94525 13.4062 7.21875 13.4062Z" fill="white"/>
</svg>
