<svg width="38" height="35" viewBox="0 0 38 35" fill="none" xmlns="http://www.w3.org/2000/svg">
<path d="M15.8334 26.2501C18.6438 26.2495 21.3732 25.383 23.587 23.7884L30.5473 30.1992L32.7862 28.1372L25.8258 21.7263C27.558 19.6871 28.4994 17.1726 28.5001 14.5834C28.5001 8.15071 22.8175 2.91675 15.8334 2.91675C8.84933 2.91675 3.16675 8.15071 3.16675 14.5834C3.16675 21.0161 8.84933 26.2501 15.8334 26.2501ZM15.8334 5.83341C21.0727 5.83341 25.3334 9.75779 25.3334 14.5834C25.3334 19.409 21.0727 23.3334 15.8334 23.3334C10.5942 23.3334 6.33341 19.409 6.33341 14.5834C6.33341 9.75779 10.5942 5.83341 15.8334 5.83341Z" fill="#7C7C7C"/>
</svg>
