<svg width="35" height="37" viewBox="0 0 35 37" fill="none" xmlns="http://www.w3.org/2000/svg">
<path d="M12.7488 13.3848C11.184 14.7908 10.6108 17.3545 11.9613 19.4111C13.2303 21.3401 14.8145 23.0143 16.6396 24.3553C18.585 25.7828 21.0102 25.177 22.3402 23.5228L22.3548 23.5305C24.0533 24.3628 25.8563 24.9324 27.7084 25.2217V29.2917H27.7025C16.0738 29.3086 7.27856 19.9045 7.29168 7.7145V7.70833H11.1417V7.70988C11.4158 9.66779 11.9554 11.5733 12.7415 13.3678L12.7488 13.3832V13.3848ZM27.7084 32.375H29.1667C29.5535 32.375 29.9244 32.2126 30.1979 31.9235C30.4714 31.6343 30.625 31.2422 30.625 30.8333V23.8928C30.6253 23.5229 30.4998 23.1653 30.2715 22.8851C30.0431 22.6049 29.7271 22.4209 29.3811 22.3665L28.1356 22.1723C26.5602 21.9251 25.0264 21.4401 23.5813 20.7323L22.4831 20.1943C22.1748 20.0433 21.8262 20.0108 21.4976 20.1026C21.1691 20.1944 20.8811 20.4046 20.6836 20.6969L20.1863 21.4323C19.7502 22.0782 18.9175 22.274 18.3036 21.8223C16.7642 20.6911 15.4279 19.279 14.3573 17.6521C13.93 17.0015 14.1167 16.1212 14.7263 15.6618L15.4219 15.1376C15.6987 14.9287 15.8978 14.624 15.9846 14.2763C16.0714 13.9287 16.0406 13.5598 15.8973 13.2337L15.3869 12.0713C14.718 10.5434 14.2598 8.922 14.0263 7.25663L13.8411 5.94004C13.7896 5.57422 13.6155 5.24014 13.3505 4.99873C13.0854 4.75732 12.7472 4.62468 12.3973 4.625H5.83335C5.44658 4.625 5.07564 4.78743 4.80215 5.07654C4.52866 5.36566 4.37502 5.75779 4.37502 6.16667V7.70988C4.36043 21.5957 14.4521 32.395 27.7069 32.375H27.7084Z" fill="#1CBABD"/>
</svg>
