<svg width="43" height="41" viewBox="0 0 43 41" fill="none" xmlns="http://www.w3.org/2000/svg">
<path d="M10.75 8.96875C9.32446 8.96875 7.95731 9.5087 6.9493 10.4698C5.94129 11.431 5.375 12.7345 5.375 14.0938V26.9062C5.375 28.2655 5.94129 29.569 6.9493 30.5302C7.95731 31.4913 9.32446 32.0312 10.75 32.0312H24.1875C25.613 32.0312 26.9802 31.4913 27.9882 30.5302C28.9962 29.569 29.5625 28.2655 29.5625 26.9062V25.625L34.4 29.0844C34.6995 29.2985 35.0555 29.4289 35.4284 29.461C35.8012 29.493 36.176 29.4255 36.5108 29.2659C36.8456 29.1062 37.1272 28.8609 37.324 28.5573C37.5208 28.2537 37.625 27.9038 37.625 27.5469V13.4531C37.625 13.0962 37.5208 12.7463 37.324 12.4427C37.1272 12.1391 36.8456 11.8938 36.5108 11.7341C36.176 11.5745 35.8012 11.507 35.4284 11.539C35.0555 11.5711 34.6995 11.7015 34.4 11.9156L29.5625 15.375V14.0938C29.5625 12.7345 28.9962 11.431 27.9882 10.4698C26.9802 9.5087 25.613 8.96875 24.1875 8.96875H10.75ZM29.5625 18.5781L34.9375 14.7344V26.2656L29.5625 22.4219V18.5781ZM26.875 14.0938V26.9062C26.875 27.5859 26.5919 28.2376 26.0878 28.7182C25.5838 29.1988 24.9003 29.4688 24.1875 29.4688H10.75C10.0372 29.4688 9.35365 29.1988 8.84965 28.7182C8.34565 28.2376 8.0625 27.5859 8.0625 26.9062V14.0938C8.0625 13.4141 8.34565 12.7624 8.84965 12.2818C9.35365 11.8012 10.0372 11.5312 10.75 11.5312H24.1875C24.9003 11.5312 25.5838 11.8012 26.0878 12.2818C26.5919 12.7624 26.875 13.4141 26.875 14.0938Z" fill="#1CBABD"/>
</svg>
