<svg width="34" height="31" viewBox="0 0 34 31" fill="none" xmlns="http://www.w3.org/2000/svg">
<path d="M19.7271 3.23445C20.2825 3.23441 20.8282 3.36668 21.3103 3.61816C21.7924 3.86965 22.194 4.23161 22.4754 4.6682L23.6286 6.45974H26.5625C27.7833 6.45974 28.9542 6.90184 29.8176 7.68882C30.681 8.4758 31.1663 9.54323 31.1667 10.6564V22.9272C31.1667 23.4785 31.0476 24.0244 30.8162 24.5337C30.5848 25.043 30.2457 25.5058 29.8181 25.8956C29.3906 26.2854 28.883 26.5946 28.3244 26.8056C27.7658 27.0165 27.1671 27.1251 26.5625 27.1251H7.43748C6.21638 27.1251 5.04529 26.6828 4.18184 25.8956C3.31839 25.1083 2.83331 24.0406 2.83331 22.9272V10.6564C2.83331 9.54301 3.31839 8.47525 4.18184 7.68799C5.04529 6.90072 6.21638 6.45845 7.43748 6.45845H10.3841L11.6237 4.61911C11.9087 4.19573 12.308 3.84603 12.7835 3.60339C13.2589 3.36075 13.7946 3.23329 14.3395 3.23315H19.7271V3.23445ZM19.7271 5.17195H14.3395C14.1844 5.17206 14.0313 5.20311 13.8908 5.26291C13.7504 5.32271 13.6259 5.40981 13.5263 5.51811L13.4342 5.63436L11.8858 7.93353C11.7909 8.07474 11.6578 8.19139 11.4993 8.27235C11.3408 8.3533 11.1622 8.39586 10.9806 8.39595H7.4389C7.11321 8.39578 6.79068 8.45412 6.48973 8.56764C6.18878 8.68116 5.91531 8.84763 5.68495 9.05755C5.45458 9.26747 5.27184 9.51671 5.14716 9.79104C5.02249 10.0654 4.95831 10.3594 4.95831 10.6564V22.9272C4.95831 24.1749 6.06898 25.1876 7.43748 25.1876H26.5625C27.22 25.1876 27.8506 24.9495 28.3155 24.5256C28.7805 24.1016 29.0417 23.5267 29.0417 22.9272V10.6564C29.0417 10.0569 28.7805 9.48192 28.3155 9.05801C27.8506 8.6341 27.22 8.39595 26.5625 8.39595H23.0208C22.8356 8.39603 22.6536 8.35198 22.4928 8.26815C22.332 8.18431 22.1981 8.06362 22.1042 7.91803L20.6422 5.64857C20.5485 5.50317 20.4148 5.38259 20.2543 5.29877C20.0938 5.21495 19.912 5.17079 19.7271 5.17065V5.17195ZM17 10.3334C18.6907 10.3334 20.3122 10.9458 21.5078 12.0359C22.7033 13.1259 23.375 14.6044 23.375 16.1459C23.375 17.6875 22.7033 19.1659 21.5078 20.256C20.3122 21.3461 18.6907 21.9584 17 21.9584C15.3092 21.9584 13.6877 21.3461 12.4922 20.256C11.2966 19.1659 10.625 17.6875 10.625 16.1459C10.625 14.6044 11.2966 13.1259 12.4922 12.0359C13.6877 10.9458 15.3092 10.3334 17 10.3334ZM17 12.2709C16.4419 12.2709 15.8892 12.3712 15.3736 12.5659C14.8579 12.7606 14.3894 13.0461 13.9948 13.4059C13.6001 13.7657 13.2871 14.1929 13.0735 14.663C12.8599 15.1332 12.75 15.6371 12.75 16.1459C12.75 16.6548 12.8599 17.1587 13.0735 17.6288C13.2871 18.099 13.6001 18.5262 13.9948 18.886C14.3894 19.2458 14.8579 19.5312 15.3736 19.726C15.8892 19.9207 16.4419 20.0209 17 20.0209C18.1272 20.0209 19.2082 19.6127 20.0052 18.886C20.8022 18.1593 21.25 17.1737 21.25 16.1459C21.25 15.1182 20.8022 14.1326 20.0052 13.4059C19.2082 12.6792 18.1272 12.2709 17 12.2709Z" fill="#333333"/>
</svg>
