<svg width="28" height="28" viewBox="0 0 28 28" fill="none" xmlns="http://www.w3.org/2000/svg">
<path d="M14 16C16.7614 16 19 13.7614 19 11C19 8.23858 16.7614 6 14 6C11.2386 6 9 8.23858 9 11C9 13.7614 11.2386 16 14 16Z" stroke="white" stroke-linecap="round" stroke-linejoin="round"/>
<path d="M5.45996 23.8C6.35244 22.335 7.60678 21.1242 9.10238 20.2841C10.598 19.444 12.2845 19.0027 14 19.0027C15.7154 19.0027 17.4019 19.444 18.8975 20.2841C20.3931 21.1242 21.6475 22.335 22.54 23.8" stroke="white" stroke-linecap="round" stroke-linejoin="round"/>
<path d="M14 27C21.1797 27 27 21.1797 27 14C27 6.8203 21.1797 1 14 1C6.8203 1 1 6.8203 1 14C1 21.1797 6.8203 27 14 27Z" stroke="white" stroke-linecap="round" stroke-linejoin="round"/>
</svg>
