<svg width="500" height="50" viewBox="0 0 500 50" fill="none" xmlns="http://www.w3.org/2000/svg">
<rect x="0.5" y="0.5" width="149" height="49" rx="9.5" fill="white" stroke="#BCBEC0"/>
<g clip-path="url(#clip0_271_103)">
<path d="M86.7662 22.6496H85.7996V22.5998H74.9998V27.3998H81.7815C80.7921 30.1939 78.1335 32.1997 74.9998 32.1997C71.0237 32.1997 67.7999 28.9759 67.7999 24.9998C67.7999 21.0237 71.0237 17.7999 74.9998 17.7999C76.8352 17.7999 78.5049 18.4923 79.7763 19.6233L83.1705 16.2291C81.0273 14.2318 78.1605 13 74.9998 13C68.3729 13 63 18.3729 63 24.9998C63 31.6267 68.3729 36.9996 74.9998 36.9996C81.6267 36.9996 86.9996 31.6267 86.9996 24.9998C86.9996 24.1952 86.9168 23.4098 86.7662 22.6496Z" fill="#FFC107"/>
<path d="M64.3828 19.4145L68.3253 22.3058C69.3921 19.6647 71.9757 17.7999 74.999 17.7999C76.8344 17.7999 78.5042 18.4923 79.7755 19.6233L83.1697 16.2291C81.0265 14.2318 78.1598 13 74.999 13C70.3899 13 66.3928 15.6022 64.3828 19.4145Z" fill="#FF3D00"/>
<path d="M75.0002 37.0001C78.0997 37.0001 80.9161 35.8139 83.0455 33.8849L79.3315 30.7422C78.0863 31.6892 76.5646 32.2014 75.0002 32.2001C71.8791 32.2001 69.2289 30.21 68.2305 27.4326L64.3174 30.4476C66.3033 34.3337 70.3365 37.0001 75.0002 37.0001Z" fill="#4CAF50"/>
<path d="M86.7664 22.6494H85.7998V22.5996H75V27.3995H81.7817C81.3084 28.7294 80.4559 29.8914 79.3295 30.7421L79.3313 30.7409L83.0453 33.8836C82.7825 34.1224 86.9998 30.9995 86.9998 24.9996C86.9998 24.195 86.917 23.4096 86.7664 22.6494Z" fill="#1976D2"/>
</g>
<rect x="175.5" y="0.5" width="149" height="49" rx="9.5" fill="white" stroke="#BCBEC0"/>
<g clip-path="url(#clip1_271_103)">
<path fill-rule="evenodd" clip-rule="evenodd" d="M250 13C243.37 13 238 18.37 238 25C238 30.31 241.435 34.795 246.205 36.385C246.805 36.49 247.03 36.13 247.03 35.815C247.03 35.53 247.015 34.585 247.015 33.58C244 34.135 243.22 32.845 242.98 32.17C242.845 31.825 242.26 30.76 241.75 30.475C241.33 30.25 240.73 29.695 241.735 29.68C242.68 29.665 243.355 30.55 243.58 30.91C244.66 32.725 246.385 32.215 247.075 31.9C247.18 31.12 247.495 30.595 247.84 30.295C245.17 29.995 242.38 28.96 242.38 24.37C242.38 23.065 242.845 21.985 243.61 21.145C243.49 20.845 243.07 19.615 243.73 17.965C243.73 17.965 244.735 17.65 247.03 19.195C247.99 18.925 249.01 18.79 250.03 18.79C251.05 18.79 252.07 18.925 253.03 19.195C255.325 17.635 256.33 17.965 256.33 17.965C256.99 19.615 256.57 20.845 256.45 21.145C257.215 21.985 257.68 23.05 257.68 24.37C257.68 28.975 254.875 29.995 252.205 30.295C252.64 30.67 253.015 31.39 253.015 32.515C253.015 34.12 253 35.41 253 35.815C253 36.13 253.225 36.505 253.825 36.385C256.207 35.5807 258.277 34.0497 259.744 32.0074C261.21 29.965 261.999 27.5143 262 25C262 18.37 256.63 13 250 13Z" fill="black"/>
</g>
<rect x="350.5" y="0.5" width="149" height="49" rx="9.5" fill="white" stroke="#BCBEC0"/>
<g clip-path="url(#clip2_271_103)">
<path d="M437 25.0735C437 18.4045 431.627 12.9985 425 12.9985C418.37 13 412.997 18.4045 412.997 25.075C412.997 31.1005 417.386 36.0955 423.122 37.0015V28.564H420.077V25.075H423.125V22.4125C423.125 19.387 424.918 17.716 427.658 17.716C428.972 17.716 430.345 17.9515 430.345 17.9515V20.9215H428.831C427.342 20.9215 426.877 21.853 426.877 22.8085V25.0735H430.204L429.673 28.5625H426.875V37C432.611 36.094 437 31.099 437 25.0735Z" fill="#059BE5"/>
</g>
<defs>
<clipPath id="clip0_271_103">
<rect x="63" y="13" width="24" height="24" rx="12" fill="white"/>
</clipPath>
<clipPath id="clip1_271_103">
<rect x="238" y="13" width="24" height="24" rx="12" fill="white"/>
</clipPath>
<clipPath id="clip2_271_103">
<rect x="413" y="13" width="24" height="24" rx="12" fill="white"/>
</clipPath>
</defs>
</svg>
