<svg width="20" height="20" viewBox="0 0 20 20" fill="none" xmlns="http://www.w3.org/2000/svg">
<g clip-path="url(#clip0_271_300)">
<path d="M2.14293 3.57153C1.76405 3.57153 1.40068 3.72204 1.13277 3.98995C0.864865 4.25786 0.714355 4.62122 0.714355 5.0001V17.8572C0.714355 18.2361 0.864865 18.5995 1.13277 18.8674C1.40068 19.1353 1.76405 19.2858 2.14293 19.2858H17.8572C18.2361 19.2858 18.5995 19.1353 18.8674 18.8674C19.1353 18.5995 19.2858 18.2361 19.2858 17.8572V5.0001C19.2858 4.62122 19.1353 4.25786 18.8674 3.98995C18.5995 3.72204 18.2361 3.57153 17.8572 3.57153H15.0001" stroke="#FFF8F0" stroke-linecap="round" stroke-linejoin="round"/>
<path d="M0.714355 9.28589H19.2858" stroke="#FFF8F0" stroke-linecap="round" stroke-linejoin="round"/>
<path d="M5 0.714355V6.42864" stroke="#FFF8F0" stroke-linecap="round" stroke-linejoin="round"/>
<path d="M15 0.714355V6.42864" stroke="#FFF8F0" stroke-linecap="round" stroke-linejoin="round"/>
<path d="M5 3.57153H12.1429" stroke="#FFF8F0" stroke-linecap="round" stroke-linejoin="round"/>
</g>
<defs>
<clipPath id="clip0_271_300">
<rect width="20" height="20" fill="white"/>
</clipPath>
</defs>
</svg>
