<svg width="26" height="24" viewBox="0 0 26 24" fill="none" xmlns="http://www.w3.org/2000/svg">
<path d="M13 2.25C10.9109 2.25 8.86879 2.82183 7.13179 3.89317C5.3948 4.96451 4.04098 6.48726 3.24153 8.26884C2.44208 10.0504 2.2329 12.0108 2.64046 13.9021C3.04802 15.7934 4.054 17.5307 5.53119 18.8943C7.00838 20.2579 8.89044 21.1865 10.9394 21.5627C12.9883 21.9389 15.1121 21.7458 17.0421 21.0078C18.9721 20.2699 20.6218 19.0202 21.7824 17.4168C22.943 15.8134 23.5625 13.9284 23.5625 12C23.5571 9.41566 22.4426 6.93859 20.4629 5.11118C18.4832 3.28378 15.7997 2.25496 13 2.25ZM14.2188 16.5C14.2188 16.6989 14.1332 16.8897 13.9808 17.0303C13.8284 17.171 13.6217 17.25 13.4063 17.25C13.1908 17.25 12.9841 17.171 12.8317 17.0303C12.6794 16.8897 12.5938 16.6989 12.5938 16.5V9.27188L11.4156 10.0031C11.2352 10.1125 11.015 10.1513 10.8036 10.1108C10.5922 10.0704 10.4068 9.95409 10.2883 9.7875C10.1698 9.62091 10.1278 9.41769 10.1716 9.22253C10.2154 9.02738 10.3414 8.85628 10.5219 8.74688L12.9594 7.24688C13.0828 7.17451 13.2244 7.133 13.3704 7.12642C13.5164 7.11985 13.6618 7.14843 13.7922 7.20938C13.9221 7.27409 14.0304 7.37025 14.1056 7.48752C14.1807 7.60479 14.2199 7.73875 14.2188 7.875V16.5Z" fill="#F24E1E"/>
</svg>
