<svg width="26" height="25" viewBox="0 0 26 25" fill="none" xmlns="http://www.w3.org/2000/svg">
<path d="M13 2.34375C10.9109 2.34375 8.86879 2.9394 7.13179 4.05539C5.3948 5.17137 4.04098 6.75756 3.24153 8.61337C2.44208 10.4692 2.2329 12.5113 2.64046 14.4814C3.04802 16.4515 4.054 18.2612 5.53119 19.6816C7.00838 21.1019 8.89044 22.0692 10.9394 22.4611C12.9883 22.853 15.1121 22.6519 17.0421 21.8832C18.9721 21.1144 20.6218 19.8127 21.7824 18.1425C22.943 16.4723 23.5625 14.5087 23.5625 12.5C23.5571 9.80798 22.4426 7.2277 20.4629 5.32415C18.4832 3.4206 15.7997 2.34891 13 2.34375ZM14.2188 17.1875C14.2188 17.3947 14.1332 17.5934 13.9808 17.7399C13.8284 17.8864 13.6217 17.9688 13.4063 17.9688C13.1908 17.9688 12.9841 17.8864 12.8317 17.7399C12.6794 17.5934 12.5938 17.3947 12.5938 17.1875V9.6582L11.4156 10.4199C11.2352 10.5339 11.015 10.5742 10.8036 10.5321C10.5922 10.49 10.4068 10.3688 10.2883 10.1953C10.1698 10.0218 10.1278 9.81009 10.1716 9.6068C10.2154 9.40352 10.3414 9.22529 10.5219 9.11133L12.9594 7.54883C13.0828 7.47344 13.2244 7.4302 13.3704 7.42336C13.5164 7.41651 13.6618 7.44629 13.7922 7.50977C13.9221 7.57718 14.0304 7.67734 14.1056 7.7995C14.1807 7.92166 14.2199 8.0612 14.2188 8.20312V17.1875Z" fill="#F24E1E"/>
</svg>
