<svg width="27" height="24" viewBox="0 0 27 24" fill="none" xmlns="http://www.w3.org/2000/svg">
<path d="M13.5 2.25C11.3306 2.25 9.2099 2.82183 7.40609 3.89317C5.60229 4.96451 4.1964 6.48726 3.3662 8.26884C2.536 10.0504 2.31878 12.0108 2.74202 13.9021C3.16525 15.7934 4.20992 17.5307 5.74393 18.8943C7.27793 20.2579 9.23238 21.1865 11.3601 21.5627C13.4878 21.9389 15.6933 21.7458 17.6976 21.0078C19.7018 20.2699 21.4149 19.0202 22.6202 17.4168C23.8254 15.8134 24.4688 13.9284 24.4688 12C24.4632 9.41566 23.3058 6.93859 21.2499 5.11118C19.1941 3.28378 16.4074 2.25496 13.5 2.25ZM16.4531 16.5C16.4531 16.6989 16.3642 16.8897 16.206 17.0303C16.0478 17.171 15.8332 17.25 15.6094 17.25C15.3856 17.25 15.171 17.171 15.0128 17.0303C14.8545 16.8897 14.7656 16.6989 14.7656 16.5V14.25H10.5469C10.4123 14.2493 10.2798 14.22 10.1606 14.1646C10.0413 14.1091 9.93872 14.0291 9.86133 13.9313C9.78251 13.8334 9.73172 13.7199 9.71334 13.6007C9.69496 13.4814 9.70956 13.36 9.75586 13.2469L12.2871 6.87188C12.3753 6.70111 12.5324 6.566 12.7273 6.49327C12.9223 6.42055 13.1408 6.41551 13.3397 6.47916C13.5386 6.54281 13.7034 6.6705 13.8014 6.83697C13.8995 7.00345 13.9236 7.19657 13.8691 7.37812L11.7387 12.75H14.7656V10.5C14.7656 10.3011 14.8545 10.1103 15.0128 9.96967C15.171 9.82902 15.3856 9.75 15.6094 9.75C15.8332 9.75 16.0478 9.82902 16.206 9.96967C16.3642 10.1103 16.4531 10.3011 16.4531 10.5V16.5Z" fill="#F24E1E"/>
</svg>
