<svg width="26" height="23" viewBox="0 0 26 23" fill="none" xmlns="http://www.w3.org/2000/svg">
<path d="M13 2.15625C10.9109 2.15625 8.86879 2.70425 7.13179 3.73096C5.3948 4.75766 4.04098 6.21695 3.24153 7.9243C2.44208 9.63165 2.2329 11.5104 2.64046 13.3229C3.04802 15.1354 4.054 16.8003 5.53119 18.107C7.00838 19.4138 8.89044 20.3037 10.9394 20.6642C12.9883 21.0247 15.1121 20.8397 17.0421 20.1325C18.9721 19.4253 20.6218 18.2277 21.7824 16.6911C22.943 15.1545 23.5625 13.348 23.5625 11.5C23.5571 9.02334 22.4426 6.64948 20.4629 4.89822C18.4832 3.14695 15.7997 2.161 13 2.15625ZM12.5836 10.4219C13.1842 10.4232 13.7752 10.5554 14.3044 10.8067C14.8335 11.0581 15.2845 11.4209 15.6175 11.8631C15.9505 12.3053 16.1552 12.8133 16.2136 13.3421C16.2719 13.8709 16.1821 14.4043 15.952 14.8951C15.722 15.3859 15.3588 15.819 14.8946 16.1561C14.4304 16.4932 13.8794 16.724 13.2904 16.828C12.7014 16.932 12.0925 16.9061 11.5175 16.7525C10.9425 16.5989 10.4192 16.3223 9.99375 15.9473C9.91164 15.8825 9.84525 15.8037 9.7986 15.7155C9.75195 15.6274 9.72603 15.5318 9.72239 15.4345C9.71875 15.3373 9.73748 15.2404 9.77744 15.1497C9.8174 15.059 9.87776 14.9765 9.95486 14.9071C10.032 14.8376 10.1242 14.7828 10.226 14.7458C10.3277 14.7089 10.4369 14.6906 10.5469 14.6921C10.6569 14.6936 10.7654 14.7148 10.8659 14.7545C10.9663 14.7942 11.0566 14.8516 11.1313 14.923C11.3218 15.0919 11.5482 15.2256 11.7975 15.3166C12.0468 15.4076 12.3139 15.454 12.5836 15.4531C12.8517 15.4538 13.1173 15.4073 13.3649 15.3163C13.6125 15.2253 13.8372 15.0916 14.0258 14.923C14.2156 14.7575 14.3663 14.5603 14.4691 14.3429C14.572 14.1254 14.6249 13.892 14.6249 13.6562C14.6249 13.4205 14.572 13.1871 14.4691 12.9696C14.3663 12.7522 14.2156 12.555 14.0258 12.3895C13.8372 12.2209 13.6125 12.0872 13.3649 11.9962C13.1173 11.9052 12.8517 11.8587 12.5836 11.8594C12.3139 11.8585 12.0468 11.9049 11.7975 11.9959C11.5482 12.0869 11.3218 12.2206 11.1313 12.3895C11.009 12.4956 10.852 12.5649 10.6826 12.5874C10.5132 12.6099 10.3401 12.5844 10.188 12.5147C10.0359 12.4449 9.91265 12.3344 9.83582 12.199C9.75898 12.0636 9.7325 11.9101 9.76016 11.7605L10.5523 7.43008C10.5837 7.26187 10.6815 7.10898 10.8285 6.99872C10.9755 6.88845 11.162 6.82799 11.3547 6.82812H15.4375C15.653 6.82812 15.8597 6.90385 16.012 7.03864C16.1644 7.17343 16.25 7.35625 16.25 7.54688C16.25 7.7375 16.1644 7.92032 16.012 8.05511C15.8597 8.1899 15.653 8.26562 15.4375 8.26562H12.0453L11.6289 10.5297C11.9407 10.458 12.2615 10.4218 12.5836 10.4219Z" fill="#F24E1E"/>
</svg>
