<svg width="808" height="832" viewBox="0 0 808 832" fill="none" xmlns="http://www.w3.org/2000/svg">
<g filter="url(#filter0_d_133_78)">
<path d="M5 41.25C5 27.0127 5 19.8941 7.81466 14.4756C10.1866 9.90956 13.9096 6.18655 18.4756 3.81466C23.8941 1 31.0127 1 45.25 1H762.75C776.987 1 784.106 1 789.524 3.81466C794.09 6.18655 797.813 9.90956 800.185 14.4756C803 19.8941 803 27.0127 803 41.25V782.75C803 796.987 803 804.106 800.185 809.524C797.813 814.09 794.09 817.813 789.524 820.185C784.106 823 776.987 823 762.75 823H45.25C31.0127 823 23.8941 823 18.4756 820.185C13.9096 817.813 10.1866 814.09 7.81466 809.524C5 804.106 5 796.987 5 782.75V41.25Z" fill="white"/>
</g>
<defs>
<filter id="filter0_d_133_78" x="0" y="0" width="808" height="832" filterUnits="userSpaceOnUse" color-interpolation-filters="sRGB">
<feFlood flood-opacity="0" result="BackgroundImageFix"/>
<feColorMatrix in="SourceAlpha" type="matrix" values="0 0 0 0 0 0 0 0 0 0 0 0 0 0 0 0 0 0 127 0" result="hardAlpha"/>
<feOffset dy="4"/>
<feGaussianBlur stdDeviation="2.5"/>
<feComposite in2="hardAlpha" operator="out"/>
<feColorMatrix type="matrix" values="0 0 0 0 0.474219 0 0 0 0 0.770719 0 0 0 0 0.9375 0 0 0 0.38 0"/>
<feBlend mode="normal" in2="BackgroundImageFix" result="effect1_dropShadow_133_78"/>
<feBlend mode="normal" in="SourceGraphic" in2="effect1_dropShadow_133_78" result="shape"/>
</filter>
</defs>
</svg>
